<svg width="74" height="92" viewBox="0 0 74 92" fill="none" xmlns="http://www.w3.org/2000/svg">
<g clip-path="url(#clip0_1_112)">
<path d="M32.644 27.996C32.1007 27.4955 31.665 26.8918 31.3628 26.221C31.0603 25.5502 30.898 24.8263 30.8847 24.0922C30.8717 23.3579 31.0084 22.6287 31.2864 21.9477C31.5645 21.267 31.9785 20.6484 32.5036 20.1293C33.0288 19.61 33.6541 19.2008 34.3428 18.9257C35.0312 18.6508 35.7687 18.5158 36.5112 18.5286C37.2538 18.5416 37.9859 18.7022 38.6642 19.0013C39.3425 19.3001 39.9531 19.731 40.4594 20.2682C41.436 21.3047 41.9679 22.6755 41.9425 24.0922C41.9172 25.5087 41.337 26.8602 40.3239 27.8619C39.3106 28.8639 37.9439 29.4376 36.5112 29.4627C35.0786 29.4876 33.6923 28.9619 32.644 27.996ZM11.7823 -0.352905L16.9986 4.80509C11.8142 9.93209 8.90153 16.8855 8.90153 24.1357C8.90153 31.3859 11.8142 38.3392 16.9986 43.4662L11.7823 48.6243C8.52954 45.4085 5.94952 41.5908 4.18908 37.389C2.42884 33.1872 1.52283 28.6837 1.52283 24.1357C1.52283 19.5878 2.42884 15.0843 4.18908 10.8824C5.94952 6.68057 8.52954 2.86281 11.7823 -0.352905ZM61.3136 -0.352905C64.5663 2.86281 67.1464 6.68057 68.9068 10.8824C70.667 15.0843 71.5731 19.5878 71.5731 24.1357C71.5731 28.6837 70.667 33.1872 68.9068 37.389C67.1464 41.5908 64.5663 45.4085 61.3136 48.6243L56.0973 43.4662C61.2817 38.3392 64.1943 31.3859 64.1943 24.1357C64.1943 16.8855 61.2817 9.93209 56.0973 4.80509L61.3136 -0.352905ZM22.2113 9.95578L27.424 15.1101C26.2257 16.2949 25.2752 17.7015 24.6266 19.2493C23.978 20.7975 23.6444 22.4564 23.6444 24.1321C23.6444 25.8075 23.978 27.4667 24.6266 29.0148C25.2752 30.5627 26.2257 31.9693 27.424 33.1541L22.2113 38.3083C18.409 34.5486 16.273 29.4491 16.273 24.1321C16.273 18.815 18.409 13.7156 22.2113 9.95578ZM50.8846 9.95578C54.6868 13.7156 56.8229 18.815 56.8229 24.1321C56.8229 29.4491 54.6868 34.5486 50.8846 38.3083L45.6719 33.1541C46.8702 31.9693 47.8207 30.5627 48.4693 29.0148C49.1178 27.4667 49.4514 25.8075 49.4514 24.1321C49.4514 22.4564 49.1178 20.7975 48.4693 19.2493C47.8207 17.7015 46.8702 16.2949 45.6719 15.1101L50.8846 9.95578Z" fill="black"/>
<path fill-rule="evenodd" clip-rule="evenodd" d="M65.5342 56.412H7.56164C5.56062 56.412 3.93835 58.0343 3.93835 60.0353V84.1905C3.93835 86.1915 5.56062 87.8138 7.56164 87.8138H65.5342C67.5353 87.8138 69.1575 86.1915 69.1575 84.1905V60.0353C69.1575 58.0343 67.5353 56.412 65.5342 56.412ZM7.56164 52.7887C3.55935 52.7887 0.315063 56.033 0.315063 60.0353V84.1905C0.315063 88.1926 3.55935 91.4371 7.56164 91.4371H65.5342C69.5365 91.4371 72.7808 88.1926 72.7808 84.1905V60.0353C72.7808 56.033 69.5365 52.7887 65.5342 52.7887H7.56164Z" fill="black"/>
<path d="M17.732 72.3677L19.1192 60.1486H32.5933V64.1279H23.0326L22.4381 69.2964C23.572 68.6908 24.7773 68.3882 26.0544 68.3882C28.3441 68.3882 30.1384 69.0981 31.4374 70.5182C32.7363 71.9383 33.3858 73.9253 33.3858 76.4792C33.3858 78.0314 33.0556 79.424 32.3952 80.6568C31.7456 81.8789 30.8099 82.8311 29.5881 83.5135C28.3661 84.185 26.924 84.5207 25.2617 84.5207C23.8087 84.5207 22.4601 84.2289 21.2161 83.6456C19.9724 83.0511 18.9871 82.2199 18.2605 81.1523C17.545 80.0844 17.1651 78.8679 17.1211 77.5029H21.8437C21.9427 78.5046 22.2896 79.2863 22.8841 79.8476C23.4894 80.3981 24.2766 80.6733 25.2452 80.6733C26.324 80.6733 27.1552 80.288 27.7385 79.5174C28.3221 78.736 28.6137 77.635 28.6137 76.2149C28.6137 74.8499 28.2779 73.8042 27.6064 73.0777C26.9349 72.3511 25.9827 71.9878 24.7498 71.9878C23.616 71.9878 22.6968 72.2851 21.9922 72.8796L21.5299 73.3088L17.732 72.3677Z" fill="black"/>
<path d="M55.9749 81.1523C55.0831 82.2199 53.8226 83.0511 52.1936 83.6456C50.5643 84.2289 48.759 84.5207 46.7775 84.5207C44.6968 84.5207 42.8694 84.0695 41.2952 83.1668C39.7322 82.253 38.5213 80.932 37.6625 79.2037C36.8149 77.4754 36.3801 75.4444 36.3582 73.1108V71.4759C36.3582 69.0761 36.7599 67.0012 37.5635 65.2509C38.378 63.4895 39.545 62.1464 41.0641 61.2218C42.5943 60.286 44.3833 59.8181 46.4306 59.8181C49.2817 59.8181 51.511 60.5007 53.1183 61.8658C54.7253 63.2197 55.6775 65.1958 55.9749 67.7937H51.1532C50.9329 66.4176 50.4431 65.4103 49.6836 64.7719C48.9351 64.1335 47.9003 63.8141 46.5792 63.8141C44.8951 63.8141 43.6125 64.4472 42.732 65.7132C41.8513 66.9792 41.4054 68.8616 41.3943 71.3605V72.896C41.3943 75.4169 41.8733 77.3213 42.831 78.6092C43.7888 79.8972 45.1922 80.5411 47.0415 80.5411C48.902 80.5411 50.2286 80.145 51.0211 79.3525V75.2077H46.5133V71.5585H55.9749V81.1523Z" fill="black"/>
</g>
<defs>
<clipPath id="clip0_1_112">
<rect width="73.0959" height="92" fill="white"/>
</clipPath>
</defs>
</svg>
