<svg width="92" height="92" viewBox="0 0 92 92" fill="none" xmlns="http://www.w3.org/2000/svg">
<path d="M45.9991 30.4837C49.5573 30.4837 52.4398 27.5774 52.4398 23.9887C52.4398 20.3983 49.5573 17.489 45.9991 17.489C42.4418 17.489 39.5577 20.3983 39.5577 23.9887C39.5577 27.5776 42.4418 30.4837 45.9991 30.4837Z" fill="black"/>
<path d="M25.7902 41.9592H48.0459H66.2066C67.6329 41.9608 68.9366 41.3725 69.8629 40.432C70.7954 39.498 71.3726 38.1928 71.3726 36.7678V12.71C71.3726 11.2883 70.7954 9.98002 69.8629 9.04583C68.9366 8.10858 67.6329 7.51723 66.2066 7.51723H60.6158C60.1646 7.51884 59.7447 7.24985 59.5511 6.81429L57.8779 3.06673C57.0485 1.20786 55.2076 0 53.164 0H38.8335C36.7898 0 34.9492 1.20786 34.118 3.06655L32.444 6.81411C32.2507 7.24967 31.8315 7.51866 31.3803 7.51705H25.7904C24.3672 7.51705 23.0595 8.1084 22.1325 9.04565C21.2029 9.97984 20.6258 11.2881 20.6258 12.7098V36.7678C20.6258 38.1928 21.2029 39.498 22.1325 40.432C23.0595 41.3725 24.3671 41.9608 25.7902 41.9592ZM62.8647 13.3231H66.4125V16.871H62.8647V13.3231ZM37.7265 15.6617C39.8353 13.5308 42.769 12.2035 45.9993 12.2067C49.2272 12.2035 52.1624 13.5308 54.2712 15.6617C56.384 17.7925 57.6932 20.7429 57.6917 23.9888C57.6933 27.2316 56.3841 30.185 54.2712 32.3112C52.1624 34.4438 49.227 35.7709 45.9993 35.7709C42.7707 35.7709 39.8353 34.4452 37.7265 32.3112C35.6137 30.185 34.3045 27.2316 34.3059 23.9888C34.3043 20.7429 35.6135 17.7927 37.7265 15.6617Z" fill="black"/>
<path d="M53.2466 51.5631H58.6139V45.5053H33.3852V51.5631H38.7525L18.8927 87.3042L23.3213 89.891L42.6817 58.3348L43.435 92H48.5641L49.3174 58.3348L68.6787 89.891L73.1073 87.3042L53.2466 51.5631Z" fill="black"/>
</svg>
