<svg width="92" height="92" viewBox="0 0 92 92" fill="none" xmlns="http://www.w3.org/2000/svg">
<g clip-path="url(#clip0_11_11)">
<path d="M24.5333 36.8H30.6667V30.6667H24.5333V36.8ZM61.3333 36.8H67.4667V30.6667H61.3333V36.8ZM61.9467 53.36C53.9733 63.9909 38.0267 63.9909 30.0533 53.36L25.1467 57.04C35.5733 70.9424 56.4267 70.9424 66.8533 57.04L61.9467 53.36ZM6.13333 30.6667V15.3333H0V30.6667H6.13333ZM15.3333 6.13333H30.6667V0H15.3333V6.13333ZM6.13333 15.3333C6.13333 10.2523 10.2523 6.13333 15.3333 6.13333V0C6.86498 0 0 6.86498 0 15.3333H6.13333ZM0 61.3333V76.6667H6.13333V61.3333H0ZM15.3333 92H30.6667V85.8667H15.3333V92ZM0 76.6667C0 85.135 6.86498 92 15.3333 92V85.8667C10.2523 85.8667 6.13333 81.7475 6.13333 76.6667H0ZM61.3333 6.13333H76.6667V0H61.3333V6.13333ZM85.8667 15.3333V30.6667H92V15.3333H85.8667ZM76.6667 6.13333C81.7475 6.13333 85.8667 10.2523 85.8667 15.3333H92C92 6.86498 85.135 0 76.6667 0V6.13333ZM61.3333 92H76.6667V85.8667H61.3333V92ZM92 76.6667V61.3333H85.8667V76.6667H92ZM76.6667 92C85.135 92 92 85.135 92 76.6667H85.8667C85.8667 81.7475 81.7475 85.8667 76.6667 85.8667V92Z" fill="black"/>
</g>
<defs>
<clipPath id="clip0_11_11">
<rect width="92" height="92" fill="white"/>
</clipPath>
</defs>
</svg>
