<?xml version="1.0" encoding="iso-8859-1"?>
<!-- Uploaded to: SVG Repo, www.svgrepo.com, Generator: SVG Repo Mixer Tools -->
<!DOCTYPE svg PUBLIC "-//W3C//DTD SVG 1.1//EN" "http://www.w3.org/Graphics/SVG/1.1/DTD/svg11.dtd">
<svg fill="#ffffff" version="1.1" id="Capa_1" xmlns="http://www.w3.org/2000/svg" xmlns:xlink="http://www.w3.org/1999/xlink" 
	 width="800px" height="800px" viewBox="0 0 547.765 547.765"
	 xml:space="preserve">
<g>
	<g>
		<path d="M510.009,494.102V219.047c-1.938,0.355-3.923,0.566-5.961,0.566H391.654l75.487,153.428
			c1.945,3.957,0.092,5.771-4.141,4.058l-65.453-26.53c-4.232-1.716-8.834,0.102-10.275,4.055l-22.308,61.17
			c-1.441,3.956-4.189,3.953-6.136,0l-87.005-176.834l-76.607,173.064c-1.705,3.85-4.456,3.688-6.147-0.36l-26.157-62.596
			c-1.692-4.049-6.414-6.139-10.548-4.67l-63.923,22.721c-4.134,1.469-6.102-0.459-4.4-4.309l63.388-143.199H43.723
			c-0.805,0-1.594-0.064-2.384-0.119v274.61c0,29.64,24.027,53.664,53.664,53.664h361.34
			C485.981,547.768,510.009,523.74,510.009,494.102z"/>
		<path d="M42.425,204.249c0.429,0.031,0.86,0.064,1.297,0.064h110.484H254.78h32.381h96.962h119.922
			c1.637,0,3.219-0.239,4.725-0.652c7.583-2.075,13.161-8.996,13.161-17.237v-57.439c0-9.88-8.008-17.889-17.889-17.889h-65.374
			c4.574-2.436,9.187-4.966,13.715-7.65c4.048-2.399,8.018-4.933,11.83-7.65c9.679-6.9,18.305-14.994,24.32-25.254
			c8.957-15.272,11.24-40.086-2.426-53.776c-36.335-36.402-90.344-5.364-126.544,16.34c-29.874,17.913-57.087,38.776-81.797,62.69
			c-0.694,0.673-1.404,1.322-2.096,2.001c-0.691-0.676-1.401-1.328-2.096-2.001c-24.709-23.914-51.922-44.777-81.794-62.69
			c-36.197-21.705-90.208-52.742-126.543-16.34c-13.666,13.69-11.38,38.507-2.427,53.776c6.016,10.257,14.642,18.354,24.321,25.254
			c3.813,2.717,7.782,5.251,11.83,7.65c4.529,2.684,9.14,5.214,13.715,7.65H43.723c-9.88,0-17.889,8.008-17.889,17.889v57.442
			C25.834,195.867,33.154,203.582,42.425,204.249z M358.3,75.839c14.419-9.535,85.606-57.84,100.219-36.286
			c13.237,19.523-41.993,44.844-70.457,56.243c-6.365,2.549-11.404,4.409-14.027,5.346c-2.236,0.798-4.479,1.554-6.729,2.304
			c-8.669,2.895-17.411,5.447-26.225,7.65h-27.916c2.854-2.592,5.74-5.144,8.672-7.65c3.018-2.577,6.022-5.168,9.116-7.65
			C339.769,88.73,348.891,82.063,358.3,75.839z M184.033,103.446c-2.246-0.75-4.492-1.506-6.726-2.304
			c-2.623-0.937-7.662-2.797-14.027-5.346c-28.464-11.399-83.694-36.72-70.457-56.243c14.614-21.554,85.802,26.75,100.221,36.286
			c9.412,6.224,18.534,12.892,27.344,19.958c3.094,2.481,6.099,5.073,9.116,7.65c2.932,2.506,5.817,5.058,8.672,7.65h-27.914
			C201.444,108.893,192.702,106.341,184.033,103.446z"/>
	</g>
</g>
</svg>